<?xml version="1.0" standalone="no"?>
<!DOCTYPE svg PUBLIC "-//W3C//DTD SVG 20010904//EN"
 "http://www.w3.org/TR/2001/REC-SVG-20010904/DTD/svg10.dtd">
<svg version="1.0" xmlns="http://www.w3.org/2000/svg"
 width="521.000000pt" height="521.000000pt" viewBox="0 0 521.000000 521.000000"
 preserveAspectRatio="xMidYMid meet">
<metadata>
Created by potrace 1.11, written by Peter Selinger 2001-2013
</metadata>
<g transform="translate(0.000000,521.000000) scale(0.100000,-0.100000)"
fill="#000000" stroke="none">
<path d="M3835 3399 c-126 -65 -512 -222 -525 -214 -4 3 -2 31 5 63 18 75 12
95 -34 115 -75 33 -88 21 -125 -123 -15 -58 -32 -110 -39 -117 -7 -7 -56 -15
-117 -18 -89 -6 -108 -10 -122 -27 -29 -33 -22 -54 25 -77 29 -14 63 -21 103
-21 34 0 63 -2 66 -5 3 -3 -4 -40 -14 -83 -11 -42 -22 -90 -25 -107 -7 -37
-31 -75 -48 -75 -14 0 -39 -27 -48 -52 -3 -9 3 -28 14 -41 19 -25 19 -26 -7
-174 -14 -81 -28 -207 -31 -279 l-6 -131 46 -18 c76 -29 89 -13 102 125 3 36
10 97 16 135 33 241 41 290 54 315 16 30 64 56 195 105 25 9 59 23 75 30 17 8
78 33 137 55 166 64 196 100 118 140 -66 34 -88 29 -283 -59 -34 -15 -78 -33
-97 -41 -19 -7 -39 -17 -44 -22 -35 -30 -33 13 8 127 l31 89 60 23 c33 13 69
27 80 32 11 5 119 49 240 97 298 118 341 139 353 174 12 33 7 42 -37 63 -44
22 -77 21 -126 -4z"/>
<path d="M1907 3368 c-10 -9 -25 -56 -41 -137 -14 -68 -29 -128 -34 -133 -5
-5 -108 -12 -228 -14 -121 -3 -225 -7 -231 -9 -7 -2 -13 -16 -13 -30 0 -21 9
-30 53 -50 48 -23 64 -25 210 -25 l157 0 0 -27 c0 -15 -5 -41 -11 -58 -11 -30
-18 -33 -103 -55 -158 -39 -227 -63 -238 -83 -30 -58 45 -107 163 -107 42 0
78 -3 81 -6 4 -3 -7 -36 -24 -72 -17 -37 -46 -103 -66 -147 -45 -100 -59 -116
-136 -153 -85 -41 -126 -77 -126 -112 0 -20 6 -29 23 -34 12 -3 31 -13 41 -21
19 -14 18 -17 -21 -102 -67 -146 -66 -189 4 -212 78 -26 79 -24 190 232 41 95
80 181 87 192 13 20 204 125 255 140 13 4 63 25 110 47 141 65 195 88 396 173
258 108 437 186 477 206 76 39 76 96 0 130 -43 19 -58 21 -182 15 -74 -3 -211
-17 -305 -32 -268 -41 -316 -43 -242 -10 17 8 81 37 141 65 59 28 110 51 111
51 2 0 55 24 118 54 159 75 186 118 100 157 -45 21 -53 21 -138 10 -49 -6
-175 -26 -280 -45 -104 -19 -193 -31 -197 -27 -5 4 -1 33 7 64 8 32 15 76 15
98 0 38 -2 41 -46 59 -54 24 -55 24 -77 8z m403 -305 c-8 -2 -28 -11 -45 -18
-77 -33 -314 -125 -323 -125 -8 0 -8 10 0 33 16 48 24 54 86 66 31 6 89 17
127 25 107 23 198 34 155 19z m350 -263 c13 -8 12 -10 -3 -10 -9 0 -25 -4 -35
-10 -9 -5 -48 -20 -87 -34 -312 -110 -757 -298 -776 -328 -4 -6 -9 -6 -11 -2
-5 9 87 253 100 266 7 7 102 22 527 84 132 19 245 36 250 38 16 7 19 6 35 -4z"/>
<path d="M4367 3309 c-9 -6 -40 -55 -67 -110 -37 -73 -57 -102 -76 -109 -14
-6 -79 -10 -145 -10 l-119 0 -11 -26 c-5 -15 -7 -35 -4 -44 7 -23 98 -62 127
-55 13 3 42 2 66 -2 l42 -8 -71 -105 c-97 -142 -103 -149 -157 -185 l-47 -31
3 -52 c4 -55 5 -53 -127 -252 -73 -109 -80 -159 -28 -190 47 -29 72 -26 94 13
11 17 39 66 63 107 24 41 52 85 61 98 10 13 28 43 40 68 12 25 28 48 35 51 16
6 16 6 99 -43 33 -19 92 -50 130 -68 39 -19 171 -92 295 -162 288 -165 524
-284 575 -291 51 -6 75 15 56 50 -16 30 -62 58 -296 176 -110 55 -234 119
-275 142 -41 22 -111 60 -155 83 -44 24 -96 52 -115 63 -19 11 -74 41 -121 67
-101 54 -119 71 -98 90 8 7 91 42 184 79 94 36 265 102 380 147 116 45 268
104 338 131 165 63 167 64 167 97 0 23 -8 32 -45 50 -51 25 -120 28 -225 11
-36 -6 -163 -13 -283 -17 -189 -6 -217 -5 -217 8 0 19 24 87 33 96 4 4 7 29 7
55 0 46 -2 49 -40 69 -45 23 -48 23 -73 9z m323 -368 c0 -14 -11 -19 -128 -61
-59 -21 -145 -52 -192 -70 -47 -18 -96 -35 -109 -38 -24 -5 -24 -4 10 58 19
34 45 75 59 90 l25 27 168 2 c99 0 167 -3 167 -8z"/>
<path d="M945 3192 c-17 -11 -44 -36 -60 -58 -30 -39 -162 -199 -219 -265 -48
-55 -110 -130 -125 -153 -16 -22 -19 -26 -242 -296 -223 -270 -229 -279 -229
-333 0 -46 1 -47 46 -68 95 -45 275 -1 574 140 340 161 540 240 703 277 57 13
70 20 78 41 15 40 1 63 -49 85 -42 18 -53 18 -102 8 -104 -23 -347 -110 -490
-177 -41 -19 -97 -42 -124 -50 -27 -8 -75 -26 -105 -40 -31 -14 -99 -40 -151
-58 -52 -18 -103 -36 -113 -40 -35 -14 -16 18 62 103 43 48 125 143 181 212
56 69 109 134 118 145 10 11 69 83 132 160 63 77 143 169 177 205 56 57 63 69
61 99 -3 29 -9 38 -47 58 -24 13 -45 23 -45 23 -1 0 -15 -8 -31 -18z"/>
</g>
</svg>
